<svg width="44" height="43" viewBox="0 0 44 43" fill="none" xmlns="http://www.w3.org/2000/svg">
<path d="M24.7317 9.81852C26.7483 9.81852 28.3983 8.20602 28.3983 6.23519C28.3983 4.26436 26.7483 2.65186 24.7317 2.65186C22.715 2.65186 21.065 4.26436 21.065 6.23519C21.065 8.20602 22.715 9.81852 24.7317 9.81852ZM18.1317 34.7227L19.965 26.8394L23.815 30.4227V41.1727H27.4817V27.7352L23.6317 24.1519L24.7317 18.7769C27.115 21.4644 30.7817 23.256 34.815 23.256V19.6727C31.3317 19.6727 28.3983 17.881 26.9317 15.3727L25.0983 12.506C24.365 11.431 23.265 10.7144 21.9817 10.7144C21.4317 10.7144 21.065 10.8935 20.515 10.8935L10.9817 14.8352V23.256H14.6483V17.1644L17.9483 15.9102L15.015 30.4227L6.03167 28.631L5.29834 32.2144L18.1317 34.7227Z" fill="black" fill-opacity="0.87"/>
</svg>
