<svg width="43" height="44" viewBox="0 0 43 44" fill="none" xmlns="http://www.w3.org/2000/svg">
<path d="M21.5002 3.66675C11.6102 3.66675 3.5835 11.8801 3.5835 22.0001C3.5835 32.1201 11.6102 40.3334 21.5002 40.3334C31.3902 40.3334 39.4168 32.1201 39.4168 22.0001C39.4168 11.8801 31.3902 3.66675 21.5002 3.66675ZM24.0264 33.1651V36.6667H19.2427V33.1284C16.1789 32.4684 13.581 30.4517 13.3839 26.8951H16.8956C17.0747 28.8201 18.3647 30.3234 21.6435 30.3234C25.1552 30.3234 25.9435 28.5267 25.9435 27.4084C25.9435 25.8867 25.1552 24.4567 21.1597 23.4851C16.7164 22.3851 13.6706 20.5151 13.6706 16.7567C13.6706 13.6034 16.161 11.5501 19.2427 10.8717V7.33341H24.0264V10.9084C27.3589 11.7334 29.0252 14.3184 29.1327 17.1234H25.621C25.5314 15.0884 24.4743 13.6951 21.6435 13.6951C18.956 13.6951 17.3435 14.9417 17.3435 16.7017C17.3435 18.2417 18.5081 19.2501 22.1272 20.2034C25.7464 21.1567 29.6164 22.7517 29.6164 27.3717C29.5985 30.7267 27.1439 32.5601 24.0264 33.1651Z" fill="black" fill-opacity="0.87"/>
</svg>
